{
	"patcher" : 	{
		"fileversion" : 1,
		"rect" : [ 25.0, 69.0, 1139.0, 686.0 ],
		"bglocked" : 0,
		"defrect" : [ 25.0, 69.0, 1139.0, 686.0 ],
		"openrect" : [ 0.0, 0.0, 0.0, 0.0 ],
		"openinpresentation" : 0,
		"default_fontsize" : 10.0,
		"default_fontface" : 0,
		"default_fontname" : "Arial",
		"gridonopen" : 0,
		"gridsize" : [ 15.0, 15.0 ],
		"gridsnaponopen" : 0,
		"toolbarvisible" : 1,
		"boxanimatetime" : 200,
		"imprint" : 0,
		"enablehscroll" : 1,
		"enablevscroll" : 1,
		"devicewidth" : 0.0,
		"boxes" : [ 			{
				"box" : 				{
					"maxclass" : "newobj",
					"text" : "p notemapper",
					"numoutlets" : 1,
					"fontname" : "Arial",
					"patching_rect" : [ 900.0, 345.0, 72.0, 18.0 ],
					"id" : "obj-97",
					"outlettype" : [ "int" ],
					"fontsize" : 10.0,
					"numinlets" : 1,
					"patcher" : 					{
						"fileversion" : 1,
						"rect" : [ 14.0, 52.0, 891.0, 674.0 ],
						"bglocked" : 0,
						"defrect" : [ 14.0, 52.0, 891.0, 674.0 ],
						"openrect" : [ 0.0, 0.0, 0.0, 0.0 ],
						"openinpresentation" : 0,
						"default_fontsize" : 10.0,
						"default_fontface" : 0,
						"default_fontname" : "Arial",
						"gridonopen" : 0,
						"gridsize" : [ 15.0, 15.0 ],
						"gridsnaponopen" : 0,
						"toolbarvisible" : 1,
						"boxanimatetime" : 200,
						"imprint" : 0,
						"enablehscroll" : 1,
						"enablevscroll" : 1,
						"devicewidth" : 0.0,
						"visible" : 1,
						"boxes" : [ 							{
								"box" : 								{
									"maxclass" : "newobj",
									"text" : "prepend read",
									"numoutlets" : 1,
									"fontname" : "Arial",
									"patching_rect" : [ 345.0, 90.0, 70.0, 18.0 ],
									"id" : "obj-44",
									"outlettype" : [ "" ],
									"fontsize" : 10.0,
									"numinlets" : 1
								}

							}
, 							{
								"box" : 								{
									"maxclass" : "umenu",
									"numoutlets" : 3,
									"types" : [  ],
									"fontname" : "Arial",
									"patching_rect" : [ 300.0, 60.0, 100.0, 18.0 ],
									"id" : "obj-41",
									"outlettype" : [ "int", "", "" ],
									"fontsize" : 10.0,
									"items" : [ "major.txt", ",", "minor.txt", ",", "whole.txt" ],
									"numinlets" : 1
								}

							}
, 							{
								"box" : 								{
									"maxclass" : "number",
									"numoutlets" : 2,
									"fontname" : "Arial",
									"patching_rect" : [ 135.0, 30.0, 50.0, 18.0 ],
									"id" : "obj-40",
									"outlettype" : [ "int", "bang" ],
									"fontsize" : 10.0,
									"numinlets" : 1
								}

							}
, 							{
								"box" : 								{
									"maxclass" : "newobj",
									"text" : "+",
									"numoutlets" : 1,
									"fontname" : "Arial",
									"patching_rect" : [ 75.0, 225.0, 32.5, 18.0 ],
									"id" : "obj-38",
									"outlettype" : [ "int" ],
									"fontsize" : 10.0,
									"numinlets" : 2
								}

							}
, 							{
								"box" : 								{
									"maxclass" : "newobj",
									"text" : "* 12",
									"numoutlets" : 1,
									"fontname" : "Arial",
									"patching_rect" : [ 240.0, 195.0, 32.5, 18.0 ],
									"id" : "obj-37",
									"outlettype" : [ "int" ],
									"fontsize" : 10.0,
									"numinlets" : 2
								}

							}
, 							{
								"box" : 								{
									"maxclass" : "newobj",
									"text" : "/",
									"numoutlets" : 1,
									"fontname" : "Arial",
									"patching_rect" : [ 225.0, 135.0, 32.5, 18.0 ],
									"id" : "obj-33",
									"outlettype" : [ "int" ],
									"fontsize" : 10.0,
									"numinlets" : 2
								}

							}
, 							{
								"box" : 								{
									"maxclass" : "newobj",
									"text" : "t i i",
									"numoutlets" : 2,
									"fontname" : "Arial",
									"patching_rect" : [ 75.0, 45.0, 32.5, 18.0 ],
									"id" : "obj-32",
									"outlettype" : [ "int", "int" ],
									"fontsize" : 10.0,
									"numinlets" : 1
								}

							}
, 							{
								"box" : 								{
									"maxclass" : "newobj",
									"text" : "%",
									"numoutlets" : 1,
									"fontname" : "Arial",
									"patching_rect" : [ 75.0, 90.0, 32.5, 18.0 ],
									"id" : "obj-28",
									"outlettype" : [ "int" ],
									"fontsize" : 10.0,
									"numinlets" : 2
								}

							}
, 							{
								"box" : 								{
									"maxclass" : "message",
									"text" : "length",
									"numoutlets" : 1,
									"fontname" : "Arial",
									"patching_rect" : [ 165.0, 135.0, 38.0, 16.0 ],
									"id" : "obj-27",
									"outlettype" : [ "" ],
									"fontsize" : 10.0,
									"numinlets" : 2
								}

							}
, 							{
								"box" : 								{
									"maxclass" : "newobj",
									"text" : "t 1 b 2",
									"numoutlets" : 3,
									"fontname" : "Arial",
									"patching_rect" : [ 120.0, 180.0, 46.0, 18.0 ],
									"id" : "obj-25",
									"outlettype" : [ "int", "bang", "int" ],
									"fontsize" : 10.0,
									"numinlets" : 1
								}

							}
, 							{
								"box" : 								{
									"maxclass" : "newobj",
									"text" : "gate 2 1",
									"numoutlets" : 2,
									"fontname" : "Arial",
									"patching_rect" : [ 45.0, 180.0, 47.0, 18.0 ],
									"id" : "obj-24",
									"outlettype" : [ "", "" ],
									"fontsize" : 10.0,
									"numinlets" : 2
								}

							}
, 							{
								"box" : 								{
									"maxclass" : "newobj",
									"text" : "coll major.txt",
									"numoutlets" : 4,
									"fontname" : "Arial",
									"patching_rect" : [ 75.0, 135.0, 66.0, 18.0 ],
									"id" : "obj-14",
									"outlettype" : [ "", "", "", "" ],
									"fontsize" : 10.0,
									"numinlets" : 1,
									"saved_object_attributes" : 									{
										"embed" : 0
									}

								}

							}
, 							{
								"box" : 								{
									"maxclass" : "newobj",
									"text" : "+ 48",
									"numoutlets" : 1,
									"fontname" : "Arial",
									"patching_rect" : [ 75.0, 255.0, 32.5, 18.0 ],
									"id" : "obj-3",
									"outlettype" : [ "int" ],
									"fontsize" : 10.0,
									"numinlets" : 2
								}

							}
, 							{
								"box" : 								{
									"maxclass" : "outlet",
									"numoutlets" : 0,
									"patching_rect" : [ 75.0, 300.0, 25.0, 25.0 ],
									"id" : "obj-2",
									"numinlets" : 1,
									"comment" : ""
								}

							}
, 							{
								"box" : 								{
									"maxclass" : "inlet",
									"numoutlets" : 1,
									"patching_rect" : [ 75.0, 15.0, 25.0, 25.0 ],
									"id" : "obj-1",
									"outlettype" : [ "" ],
									"numinlets" : 0,
									"comment" : ""
								}

							}
 ],
						"lines" : [ 							{
								"patchline" : 								{
									"source" : [ "obj-41", 1 ],
									"destination" : [ "obj-44", 0 ],
									"hidden" : 0,
									"midpoints" : [  ]
								}

							}
, 							{
								"patchline" : 								{
									"source" : [ "obj-44", 0 ],
									"destination" : [ "obj-14", 0 ],
									"hidden" : 0,
									"midpoints" : [  ]
								}

							}
, 							{
								"patchline" : 								{
									"source" : [ "obj-3", 0 ],
									"destination" : [ "obj-2", 0 ],
									"hidden" : 0,
									"midpoints" : [  ]
								}

							}
, 							{
								"patchline" : 								{
									"source" : [ "obj-28", 0 ],
									"destination" : [ "obj-14", 0 ],
									"hidden" : 0,
									"midpoints" : [  ]
								}

							}
, 							{
								"patchline" : 								{
									"source" : [ "obj-27", 0 ],
									"destination" : [ "obj-14", 0 ],
									"hidden" : 0,
									"midpoints" : [ 174.5, 160.0, 68.50428, 160.0, 68.50428, 125.0, 84.5, 125.0 ]
								}

							}
, 							{
								"patchline" : 								{
									"source" : [ "obj-14", 2 ],
									"destination" : [ "obj-25", 0 ],
									"hidden" : 0,
									"midpoints" : [  ]
								}

							}
, 							{
								"patchline" : 								{
									"source" : [ "obj-14", 0 ],
									"destination" : [ "obj-24", 1 ],
									"hidden" : 0,
									"midpoints" : [  ]
								}

							}
, 							{
								"patchline" : 								{
									"source" : [ "obj-40", 0 ],
									"destination" : [ "obj-32", 0 ],
									"hidden" : 0,
									"midpoints" : [  ]
								}

							}
, 							{
								"patchline" : 								{
									"source" : [ "obj-38", 0 ],
									"destination" : [ "obj-3", 0 ],
									"hidden" : 0,
									"midpoints" : [  ]
								}

							}
, 							{
								"patchline" : 								{
									"source" : [ "obj-24", 0 ],
									"destination" : [ "obj-38", 0 ],
									"hidden" : 0,
									"midpoints" : [  ]
								}

							}
, 							{
								"patchline" : 								{
									"source" : [ "obj-37", 0 ],
									"destination" : [ "obj-38", 1 ],
									"hidden" : 0,
									"midpoints" : [  ]
								}

							}
, 							{
								"patchline" : 								{
									"source" : [ "obj-33", 0 ],
									"destination" : [ "obj-37", 0 ],
									"hidden" : 0,
									"midpoints" : [  ]
								}

							}
, 							{
								"patchline" : 								{
									"source" : [ "obj-32", 1 ],
									"destination" : [ "obj-33", 0 ],
									"hidden" : 0,
									"midpoints" : [  ]
								}

							}
, 							{
								"patchline" : 								{
									"source" : [ "obj-24", 1 ],
									"destination" : [ "obj-33", 1 ],
									"hidden" : 0,
									"midpoints" : [  ]
								}

							}
, 							{
								"patchline" : 								{
									"source" : [ "obj-32", 0 ],
									"destination" : [ "obj-28", 0 ],
									"hidden" : 0,
									"midpoints" : [  ]
								}

							}
, 							{
								"patchline" : 								{
									"source" : [ "obj-1", 0 ],
									"destination" : [ "obj-32", 0 ],
									"hidden" : 0,
									"midpoints" : [  ]
								}

							}
, 							{
								"patchline" : 								{
									"source" : [ "obj-24", 1 ],
									"destination" : [ "obj-28", 1 ],
									"hidden" : 0,
									"midpoints" : [ 82.5, 207.0, 212.876816, 207.0, 212.876816, 80.0, 98.0, 80.0 ]
								}

							}
, 							{
								"patchline" : 								{
									"source" : [ "obj-25", 0 ],
									"destination" : [ "obj-24", 0 ],
									"hidden" : 0,
									"midpoints" : [ 129.5, 207.0, 36.722626, 207.0, 36.722626, 170.0, 54.5, 170.0 ]
								}

							}
, 							{
								"patchline" : 								{
									"source" : [ "obj-25", 1 ],
									"destination" : [ "obj-27", 0 ],
									"hidden" : 0,
									"midpoints" : [  ]
								}

							}
, 							{
								"patchline" : 								{
									"source" : [ "obj-25", 2 ],
									"destination" : [ "obj-24", 0 ],
									"hidden" : 0,
									"midpoints" : [ 156.5, 207.0, 36.879814, 207.0, 36.879814, 170.0, 54.5, 170.0 ]
								}

							}
 ]
					}
,
					"saved_object_attributes" : 					{
						"default_fontname" : "Arial",
						"fontname" : "Arial",
						"default_fontsize" : 10.0,
						"globalpatchername" : "",
						"fontface" : 0,
						"fontsize" : 10.0,
						"default_fontface" : 0
					}

				}

			}
, 			{
				"box" : 				{
					"maxclass" : "newobj",
					"text" : "makenote 127 250",
					"numoutlets" : 2,
					"fontname" : "Arial",
					"patching_rect" : [ 900.0, 600.0, 93.0, 18.0 ],
					"id" : "obj-83",
					"outlettype" : [ "float", "float" ],
					"fontsize" : 10.0,
					"numinlets" : 3
				}

			}
, 			{
				"box" : 				{
					"maxclass" : "newobj",
					"text" : "zl rev",
					"numoutlets" : 2,
					"fontname" : "Arial",
					"patching_rect" : [ 900.0, 60.0, 34.0, 18.0 ],
					"id" : "obj-66",
					"outlettype" : [ "", "" ],
					"fontsize" : 10.0,
					"numinlets" : 2
				}

			}
, 			{
				"box" : 				{
					"maxclass" : "newobj",
					"text" : "route 1",
					"numoutlets" : 2,
					"fontname" : "Arial",
					"patching_rect" : [ 900.0, 165.0, 42.0, 18.0 ],
					"id" : "obj-63",
					"outlettype" : [ "", "" ],
					"fontsize" : 10.0,
					"numinlets" : 1
				}

			}
, 			{
				"box" : 				{
					"maxclass" : "newobj",
					"text" : "zl iter 2",
					"numoutlets" : 2,
					"fontname" : "Arial",
					"patching_rect" : [ 900.0, 135.0, 43.0, 18.0 ],
					"id" : "obj-62",
					"outlettype" : [ "", "" ],
					"fontsize" : 10.0,
					"numinlets" : 2
				}

			}
, 			{
				"box" : 				{
					"maxclass" : "message",
					"text" : "0 1 2 3 4 5 6 7 8 9 10 11",
					"numoutlets" : 1,
					"fontname" : "Arial",
					"patching_rect" : [ 960.0, 75.0, 118.0, 16.0 ],
					"id" : "obj-59",
					"outlettype" : [ "" ],
					"fontsize" : 10.0,
					"numinlets" : 2
				}

			}
, 			{
				"box" : 				{
					"maxclass" : "newobj",
					"text" : "zl lace",
					"numoutlets" : 2,
					"fontname" : "Arial",
					"patching_rect" : [ 900.0, 105.0, 39.0, 18.0 ],
					"id" : "obj-57",
					"outlettype" : [ "", "" ],
					"fontsize" : 10.0,
					"numinlets" : 2
				}

			}
, 			{
				"box" : 				{
					"maxclass" : "newobj",
					"text" : "noteout",
					"numoutlets" : 0,
					"fontname" : "Arial",
					"patching_rect" : [ 900.0, 645.0, 46.0, 18.0 ],
					"id" : "obj-55",
					"fontsize" : 10.0,
					"numinlets" : 3
				}

			}
, 			{
				"box" : 				{
					"maxclass" : "newobj",
					"text" : "prepend getcolumn",
					"numoutlets" : 1,
					"fontname" : "Arial",
					"patching_rect" : [ 30.0, 105.0, 96.0, 18.0 ],
					"id" : "obj-52",
					"outlettype" : [ "" ],
					"fontsize" : 10.0,
					"numinlets" : 1
				}

			}
, 			{
				"box" : 				{
					"maxclass" : "toggle",
					"numoutlets" : 1,
					"patching_rect" : [ 30.0, 15.0, 20.0, 20.0 ],
					"id" : "obj-51",
					"outlettype" : [ "int" ],
					"numinlets" : 1
				}

			}
, 			{
				"box" : 				{
					"maxclass" : "newobj",
					"text" : "sel 0 1 2 3 4 5 6 7 8 9 10 11 12 13 14 15",
					"numoutlets" : 17,
					"fontname" : "Arial",
					"patching_rect" : [ 165.0, 0.0, 721.0, 18.0 ],
					"id" : "obj-49",
					"outlettype" : [ "bang", "bang", "bang", "bang", "bang", "bang", "bang", "bang", "bang", "bang", "bang", "bang", "bang", "bang", "bang", "bang", "" ],
					"fontsize" : 10.0,
					"numinlets" : 1
				}

			}
, 			{
				"box" : 				{
					"maxclass" : "newobj",
					"text" : "counter 15",
					"numoutlets" : 4,
					"fontname" : "Arial",
					"patching_rect" : [ 30.0, 75.0, 73.0, 18.0 ],
					"id" : "obj-48",
					"outlettype" : [ "int", "", "", "int" ],
					"fontsize" : 10.0,
					"numinlets" : 5
				}

			}
, 			{
				"box" : 				{
					"maxclass" : "button",
					"numoutlets" : 1,
					"patching_rect" : [ 823.413818, 30.0, 36.0, 36.0 ],
					"id" : "obj-47",
					"outlettype" : [ "bang" ],
					"numinlets" : 1
				}

			}
, 			{
				"box" : 				{
					"maxclass" : "button",
					"numoutlets" : 1,
					"patching_rect" : [ 779.919556, 30.0, 36.0, 36.0 ],
					"id" : "obj-46",
					"outlettype" : [ "bang" ],
					"numinlets" : 1
				}

			}
, 			{
				"box" : 				{
					"maxclass" : "button",
					"numoutlets" : 1,
					"patching_rect" : [ 736.425293, 30.0, 36.0, 36.0 ],
					"id" : "obj-45",
					"outlettype" : [ "bang" ],
					"numinlets" : 1
				}

			}
, 			{
				"box" : 				{
					"maxclass" : "button",
					"numoutlets" : 1,
					"patching_rect" : [ 692.93103, 30.0, 36.0, 36.0 ],
					"id" : "obj-44",
					"outlettype" : [ "bang" ],
					"numinlets" : 1
				}

			}
, 			{
				"box" : 				{
					"maxclass" : "button",
					"numoutlets" : 1,
					"patching_rect" : [ 649.436768, 30.0, 36.0, 36.0 ],
					"id" : "obj-43",
					"outlettype" : [ "bang" ],
					"numinlets" : 1
				}

			}
, 			{
				"box" : 				{
					"maxclass" : "button",
					"numoutlets" : 1,
					"patching_rect" : [ 605.942505, 30.0, 36.0, 36.0 ],
					"id" : "obj-42",
					"outlettype" : [ "bang" ],
					"numinlets" : 1
				}

			}
, 			{
				"box" : 				{
					"maxclass" : "button",
					"numoutlets" : 1,
					"patching_rect" : [ 562.448303, 30.0, 36.0, 36.0 ],
					"id" : "obj-41",
					"outlettype" : [ "bang" ],
					"numinlets" : 1
				}

			}
, 			{
				"box" : 				{
					"maxclass" : "button",
					"numoutlets" : 1,
					"patching_rect" : [ 518.954041, 30.0, 36.0, 36.0 ],
					"id" : "obj-40",
					"outlettype" : [ "bang" ],
					"numinlets" : 1
				}

			}
, 			{
				"box" : 				{
					"maxclass" : "button",
					"numoutlets" : 1,
					"patching_rect" : [ 475.459778, 30.0, 36.0, 36.0 ],
					"id" : "obj-39",
					"outlettype" : [ "bang" ],
					"numinlets" : 1
				}

			}
, 			{
				"box" : 				{
					"maxclass" : "button",
					"numoutlets" : 1,
					"patching_rect" : [ 431.965515, 30.0, 36.0, 36.0 ],
					"id" : "obj-38",
					"outlettype" : [ "bang" ],
					"numinlets" : 1
				}

			}
, 			{
				"box" : 				{
					"maxclass" : "button",
					"numoutlets" : 1,
					"patching_rect" : [ 388.471252, 30.0, 36.0, 36.0 ],
					"id" : "obj-37",
					"outlettype" : [ "bang" ],
					"numinlets" : 1
				}

			}
, 			{
				"box" : 				{
					"maxclass" : "button",
					"numoutlets" : 1,
					"patching_rect" : [ 344.97702, 30.0, 36.0, 36.0 ],
					"id" : "obj-36",
					"outlettype" : [ "bang" ],
					"numinlets" : 1
				}

			}
, 			{
				"box" : 				{
					"maxclass" : "button",
					"numoutlets" : 1,
					"patching_rect" : [ 301.482758, 30.0, 36.0, 36.0 ],
					"id" : "obj-35",
					"outlettype" : [ "bang" ],
					"numinlets" : 1
				}

			}
, 			{
				"box" : 				{
					"maxclass" : "button",
					"numoutlets" : 1,
					"patching_rect" : [ 257.988495, 30.0, 36.0, 36.0 ],
					"id" : "obj-34",
					"outlettype" : [ "bang" ],
					"numinlets" : 1
				}

			}
, 			{
				"box" : 				{
					"maxclass" : "button",
					"numoutlets" : 1,
					"patching_rect" : [ 214.494247, 30.0, 36.0, 36.0 ],
					"id" : "obj-33",
					"outlettype" : [ "bang" ],
					"numinlets" : 1
				}

			}
, 			{
				"box" : 				{
					"maxclass" : "button",
					"numoutlets" : 1,
					"patching_rect" : [ 171.0, 30.0, 36.0, 36.0 ],
					"id" : "obj-19",
					"outlettype" : [ "bang" ],
					"numinlets" : 1
				}

			}
, 			{
				"box" : 				{
					"maxclass" : "newobj",
					"text" : "metro 150",
					"numoutlets" : 1,
					"fontname" : "Arial",
					"patching_rect" : [ 30.0, 45.0, 56.0, 18.0 ],
					"id" : "obj-17",
					"outlettype" : [ "bang" ],
					"fontsize" : 10.0,
					"numinlets" : 2
				}

			}
, 			{
				"box" : 				{
					"maxclass" : "matrixctrl",
					"numoutlets" : 2,
					"patching_rect" : [ 165.0, 75.0, 702.0, 533.0 ],
					"id" : "obj-12",
					"outlettype" : [ "list", "list" ],
					"rows" : 12,
					"columns" : 16,
					"numinlets" : 1
				}

			}
 ],
		"lines" : [ 			{
				"patchline" : 				{
					"source" : [ "obj-97", 0 ],
					"destination" : [ "obj-83", 0 ],
					"hidden" : 0,
					"midpoints" : [  ]
				}

			}
, 			{
				"patchline" : 				{
					"source" : [ "obj-63", 0 ],
					"destination" : [ "obj-97", 0 ],
					"hidden" : 0,
					"midpoints" : [  ]
				}

			}
, 			{
				"patchline" : 				{
					"source" : [ "obj-83", 1 ],
					"destination" : [ "obj-55", 1 ],
					"hidden" : 0,
					"midpoints" : [  ]
				}

			}
, 			{
				"patchline" : 				{
					"source" : [ "obj-83", 0 ],
					"destination" : [ "obj-55", 0 ],
					"hidden" : 0,
					"midpoints" : [  ]
				}

			}
, 			{
				"patchline" : 				{
					"source" : [ "obj-66", 0 ],
					"destination" : [ "obj-57", 0 ],
					"hidden" : 0,
					"midpoints" : [  ]
				}

			}
, 			{
				"patchline" : 				{
					"source" : [ "obj-12", 1 ],
					"destination" : [ "obj-66", 0 ],
					"hidden" : 0,
					"midpoints" : [  ]
				}

			}
, 			{
				"patchline" : 				{
					"source" : [ "obj-62", 0 ],
					"destination" : [ "obj-63", 0 ],
					"hidden" : 0,
					"midpoints" : [  ]
				}

			}
, 			{
				"patchline" : 				{
					"source" : [ "obj-57", 0 ],
					"destination" : [ "obj-62", 0 ],
					"hidden" : 0,
					"midpoints" : [  ]
				}

			}
, 			{
				"patchline" : 				{
					"source" : [ "obj-59", 0 ],
					"destination" : [ "obj-57", 1 ],
					"hidden" : 0,
					"midpoints" : [  ]
				}

			}
, 			{
				"patchline" : 				{
					"source" : [ "obj-48", 0 ],
					"destination" : [ "obj-49", 0 ],
					"hidden" : 0,
					"midpoints" : [  ]
				}

			}
, 			{
				"patchline" : 				{
					"source" : [ "obj-52", 0 ],
					"destination" : [ "obj-12", 0 ],
					"hidden" : 0,
					"midpoints" : [  ]
				}

			}
, 			{
				"patchline" : 				{
					"source" : [ "obj-48", 0 ],
					"destination" : [ "obj-52", 0 ],
					"hidden" : 0,
					"midpoints" : [  ]
				}

			}
, 			{
				"patchline" : 				{
					"source" : [ "obj-51", 0 ],
					"destination" : [ "obj-17", 0 ],
					"hidden" : 0,
					"midpoints" : [  ]
				}

			}
, 			{
				"patchline" : 				{
					"source" : [ "obj-49", 15 ],
					"destination" : [ "obj-47", 0 ],
					"hidden" : 0,
					"midpoints" : [  ]
				}

			}
, 			{
				"patchline" : 				{
					"source" : [ "obj-49", 14 ],
					"destination" : [ "obj-46", 0 ],
					"hidden" : 0,
					"midpoints" : [  ]
				}

			}
, 			{
				"patchline" : 				{
					"source" : [ "obj-49", 13 ],
					"destination" : [ "obj-45", 0 ],
					"hidden" : 0,
					"midpoints" : [  ]
				}

			}
, 			{
				"patchline" : 				{
					"source" : [ "obj-49", 12 ],
					"destination" : [ "obj-44", 0 ],
					"hidden" : 0,
					"midpoints" : [  ]
				}

			}
, 			{
				"patchline" : 				{
					"source" : [ "obj-49", 11 ],
					"destination" : [ "obj-43", 0 ],
					"hidden" : 0,
					"midpoints" : [  ]
				}

			}
, 			{
				"patchline" : 				{
					"source" : [ "obj-49", 10 ],
					"destination" : [ "obj-42", 0 ],
					"hidden" : 0,
					"midpoints" : [  ]
				}

			}
, 			{
				"patchline" : 				{
					"source" : [ "obj-49", 9 ],
					"destination" : [ "obj-41", 0 ],
					"hidden" : 0,
					"midpoints" : [  ]
				}

			}
, 			{
				"patchline" : 				{
					"source" : [ "obj-49", 8 ],
					"destination" : [ "obj-40", 0 ],
					"hidden" : 0,
					"midpoints" : [  ]
				}

			}
, 			{
				"patchline" : 				{
					"source" : [ "obj-49", 7 ],
					"destination" : [ "obj-39", 0 ],
					"hidden" : 0,
					"midpoints" : [  ]
				}

			}
, 			{
				"patchline" : 				{
					"source" : [ "obj-49", 6 ],
					"destination" : [ "obj-38", 0 ],
					"hidden" : 0,
					"midpoints" : [  ]
				}

			}
, 			{
				"patchline" : 				{
					"source" : [ "obj-49", 5 ],
					"destination" : [ "obj-37", 0 ],
					"hidden" : 0,
					"midpoints" : [  ]
				}

			}
, 			{
				"patchline" : 				{
					"source" : [ "obj-49", 4 ],
					"destination" : [ "obj-36", 0 ],
					"hidden" : 0,
					"midpoints" : [  ]
				}

			}
, 			{
				"patchline" : 				{
					"source" : [ "obj-49", 3 ],
					"destination" : [ "obj-35", 0 ],
					"hidden" : 0,
					"midpoints" : [  ]
				}

			}
, 			{
				"patchline" : 				{
					"source" : [ "obj-49", 2 ],
					"destination" : [ "obj-34", 0 ],
					"hidden" : 0,
					"midpoints" : [  ]
				}

			}
, 			{
				"patchline" : 				{
					"source" : [ "obj-49", 1 ],
					"destination" : [ "obj-33", 0 ],
					"hidden" : 0,
					"midpoints" : [  ]
				}

			}
, 			{
				"patchline" : 				{
					"source" : [ "obj-49", 0 ],
					"destination" : [ "obj-19", 0 ],
					"hidden" : 0,
					"midpoints" : [  ]
				}

			}
, 			{
				"patchline" : 				{
					"source" : [ "obj-17", 0 ],
					"destination" : [ "obj-48", 0 ],
					"hidden" : 0,
					"midpoints" : [  ]
				}

			}
 ]
	}

}
