{
	"patcher" : 	{
		"fileversion" : 1,
		"rect" : [ 3.0, 69.0, 1239.0, 651.0 ],
		"bglocked" : 0,
		"defrect" : [ 3.0, 69.0, 1239.0, 651.0 ],
		"openrect" : [ 0.0, 0.0, 0.0, 0.0 ],
		"openinpresentation" : 0,
		"default_fontsize" : 12.0,
		"default_fontface" : 0,
		"default_fontname" : "Arial",
		"gridonopen" : 0,
		"gridsize" : [ 15.0, 15.0 ],
		"gridsnaponopen" : 0,
		"toolbarvisible" : 1,
		"boxanimatetime" : 200,
		"imprint" : 0,
		"enablehscroll" : 1,
		"enablevscroll" : 1,
		"devicewidth" : 0.0,
		"boxes" : [ 			{
				"box" : 				{
					"maxclass" : "message",
					"text" : "waveform 0",
					"patching_rect" : [ 767.0, 450.0, 73.0, 18.0 ],
					"outlettype" : [ "" ],
					"id" : "obj-126",
					"fontname" : "Arial",
					"numinlets" : 2,
					"numoutlets" : 1,
					"fontsize" : 12.0
				}

			}
, 			{
				"box" : 				{
					"maxclass" : "newobj",
					"text" : "prepend resonance",
					"patching_rect" : [ 309.0, 521.0, 114.0, 20.0 ],
					"outlettype" : [ "" ],
					"id" : "obj-124",
					"fontname" : "Arial",
					"numinlets" : 1,
					"numoutlets" : 1,
					"fontsize" : 12.0
				}

			}
, 			{
				"box" : 				{
					"maxclass" : "newobj",
					"text" : "prepend cutoff",
					"patching_rect" : [ 167.0, 557.0, 87.0, 20.0 ],
					"outlettype" : [ "" ],
					"id" : "obj-123",
					"fontname" : "Arial",
					"numinlets" : 1,
					"numoutlets" : 1,
					"fontsize" : 12.0
				}

			}
, 			{
				"box" : 				{
					"maxclass" : "newobj",
					"text" : "* 22050.",
					"patching_rect" : [ 153.0, 509.0, 55.0, 20.0 ],
					"outlettype" : [ "float" ],
					"id" : "obj-122",
					"fontname" : "Arial",
					"numinlets" : 2,
					"numoutlets" : 1,
					"fontsize" : 12.0
				}

			}
, 			{
				"box" : 				{
					"maxclass" : "newobj",
					"text" : "* 0.",
					"patching_rect" : [ 153.0, 478.0, 32.5, 20.0 ],
					"outlettype" : [ "float" ],
					"id" : "obj-121",
					"fontname" : "Arial",
					"numinlets" : 2,
					"numoutlets" : 1,
					"fontsize" : 12.0
				}

			}
, 			{
				"box" : 				{
					"maxclass" : "slider",
					"patching_rect" : [ 332.0, 434.0, 172.0, 38.0 ],
					"outlettype" : [ "" ],
					"id" : "obj-120",
					"floatoutput" : 1,
					"size" : 1.0,
					"numinlets" : 1,
					"numoutlets" : 1
				}

			}
, 			{
				"box" : 				{
					"maxclass" : "slider",
					"patching_rect" : [ 153.0, 434.0, 172.0, 38.0 ],
					"outlettype" : [ "" ],
					"id" : "obj-119",
					"floatoutput" : 1,
					"size" : 1.0,
					"numinlets" : 1,
					"numoutlets" : 1
				}

			}
, 			{
				"box" : 				{
					"maxclass" : "newobj",
					"text" : "pack i i i i i",
					"patching_rect" : [ 898.0, 455.0, 73.0, 20.0 ],
					"outlettype" : [ "" ],
					"id" : "obj-118",
					"fontname" : "Arial",
					"numinlets" : 5,
					"numoutlets" : 1,
					"fontsize" : 12.0
				}

			}
, 			{
				"box" : 				{
					"maxclass" : "number",
					"patching_rect" : [ 948.0, 107.0, 50.0, 20.0 ],
					"outlettype" : [ "int", "bang" ],
					"id" : "obj-106",
					"fontname" : "Arial",
					"numinlets" : 1,
					"numoutlets" : 2,
					"fontsize" : 12.0
				}

			}
, 			{
				"box" : 				{
					"maxclass" : "ezdac~",
					"patching_rect" : [ 1095.0, 531.0, 45.0, 45.0 ],
					"id" : "obj-104",
					"numinlets" : 2,
					"numoutlets" : 0
				}

			}
, 			{
				"box" : 				{
					"maxclass" : "gain~",
					"patching_rect" : [ 1069.0, 435.0, 20.0, 140.0 ],
					"outlettype" : [ "signal", "int" ],
					"id" : "obj-103",
					"numinlets" : 2,
					"numoutlets" : 2
				}

			}
, 			{
				"box" : 				{
					"maxclass" : "newobj",
					"text" : "s #0notedur",
					"patching_rect" : [ 912.0, 425.0, 74.0, 20.0 ],
					"id" : "obj-102",
					"fontname" : "Arial",
					"numinlets" : 1,
					"numoutlets" : 0,
					"fontsize" : 12.0
				}

			}
, 			{
				"box" : 				{
					"maxclass" : "newobj",
					"text" : "r #0notedur",
					"patching_rect" : [ 928.0, 262.0, 72.0, 20.0 ],
					"outlettype" : [ "" ],
					"id" : "obj-101",
					"fontname" : "Arial",
					"numinlets" : 0,
					"numoutlets" : 1,
					"fontsize" : 12.0
				}

			}
, 			{
				"box" : 				{
					"maxclass" : "message",
					"text" : "maxsustain 10",
					"patching_rect" : [ 950.0, 484.0, 88.0, 18.0 ],
					"outlettype" : [ "" ],
					"id" : "obj-99",
					"fontname" : "Arial",
					"numinlets" : 2,
					"numoutlets" : 1,
					"fontsize" : 12.0
				}

			}
, 			{
				"box" : 				{
					"maxclass" : "newobj",
					"text" : "poly~ tb-303_note 1",
					"patching_rect" : [ 898.0, 515.0, 117.0, 20.0 ],
					"outlettype" : [ "signal" ],
					"id" : "obj-97",
					"fontname" : "Arial",
					"numinlets" : 1,
					"numoutlets" : 1,
					"fontsize" : 12.0
				}

			}
, 			{
				"box" : 				{
					"maxclass" : "newobj",
					"text" : "unpack i i i i i i",
					"patching_rect" : [ 898.0, 393.0, 86.5, 20.0 ],
					"outlettype" : [ "int", "int", "int", "int", "int", "int" ],
					"id" : "obj-96",
					"fontname" : "Arial",
					"numinlets" : 1,
					"numoutlets" : 6,
					"fontsize" : 12.0
				}

			}
, 			{
				"box" : 				{
					"maxclass" : "message",
					"text" : "next",
					"patching_rect" : [ 897.0, 324.0, 33.0, 18.0 ],
					"outlettype" : [ "" ],
					"id" : "obj-95",
					"fontname" : "Arial",
					"numinlets" : 2,
					"numoutlets" : 1,
					"fontsize" : 12.0
				}

			}
, 			{
				"box" : 				{
					"maxclass" : "newobj",
					"text" : "t start 0",
					"patching_rect" : [ 823.0, 266.0, 51.0, 20.0 ],
					"outlettype" : [ "start", "int" ],
					"id" : "obj-93",
					"fontname" : "Arial",
					"numinlets" : 1,
					"numoutlets" : 2,
					"fontsize" : 12.0
				}

			}
, 			{
				"box" : 				{
					"maxclass" : "message",
					"text" : "reset",
					"patching_rect" : [ 823.0, 226.0, 37.0, 18.0 ],
					"outlettype" : [ "" ],
					"id" : "obj-92",
					"fontname" : "Arial",
					"numinlets" : 2,
					"numoutlets" : 1,
					"fontsize" : 12.0
				}

			}
, 			{
				"box" : 				{
					"maxclass" : "toggle",
					"patching_rect" : [ 896.0, 90.0, 36.0, 36.0 ],
					"outlettype" : [ "int" ],
					"id" : "obj-90",
					"numinlets" : 1,
					"numoutlets" : 1
				}

			}
, 			{
				"box" : 				{
					"maxclass" : "newobj",
					"text" : "- 1",
					"patching_rect" : [ 914.0, 292.0, 32.5, 20.0 ],
					"outlettype" : [ "int" ],
					"id" : "obj-88",
					"fontname" : "Arial",
					"numinlets" : 2,
					"numoutlets" : 1,
					"fontsize" : 12.0
				}

			}
, 			{
				"box" : 				{
					"maxclass" : "newobj",
					"text" : "sel 0",
					"patching_rect" : [ 897.0, 233.0, 36.0, 20.0 ],
					"outlettype" : [ "bang", "" ],
					"id" : "obj-87",
					"fontname" : "Arial",
					"numinlets" : 2,
					"numoutlets" : 2,
					"fontsize" : 12.0
				}

			}
, 			{
				"box" : 				{
					"maxclass" : "newobj",
					"text" : "i",
					"patching_rect" : [ 897.0, 203.0, 32.5, 20.0 ],
					"outlettype" : [ "int" ],
					"id" : "obj-86",
					"fontname" : "Arial",
					"numinlets" : 2,
					"numoutlets" : 1,
					"fontsize" : 12.0
				}

			}
, 			{
				"box" : 				{
					"maxclass" : "newobj",
					"text" : "metro 250",
					"patching_rect" : [ 897.0, 161.0, 65.0, 20.0 ],
					"outlettype" : [ "bang" ],
					"id" : "obj-85",
					"fontname" : "Arial",
					"numinlets" : 2,
					"numoutlets" : 1,
					"fontsize" : 12.0
				}

			}
, 			{
				"box" : 				{
					"maxclass" : "newobj",
					"text" : "coll #0tb303",
					"patching_rect" : [ 898.0, 362.0, 75.0, 20.0 ],
					"outlettype" : [ "", "", "", "" ],
					"id" : "obj-84",
					"fontname" : "Arial",
					"numinlets" : 1,
					"numoutlets" : 4,
					"fontsize" : 12.0,
					"saved_object_attributes" : 					{
						"embed" : 0
					}

				}

			}
, 			{
				"box" : 				{
					"maxclass" : "newobj",
					"text" : "t b b",
					"patching_rect" : [ 472.0, 257.0, 34.0, 20.0 ],
					"outlettype" : [ "bang", "bang" ],
					"id" : "obj-74",
					"fontname" : "Arial",
					"numinlets" : 1,
					"numoutlets" : 2,
					"fontsize" : 12.0
				}

			}
, 			{
				"box" : 				{
					"maxclass" : "newobj",
					"text" : "t b i",
					"patching_rect" : [ 556.0, 228.0, 32.5, 20.0 ],
					"outlettype" : [ "bang", "int" ],
					"id" : "obj-73",
					"fontname" : "Arial",
					"numinlets" : 1,
					"numoutlets" : 2,
					"fontsize" : 12.0
				}

			}
, 			{
				"box" : 				{
					"maxclass" : "newobj",
					"text" : "pack i i",
					"patching_rect" : [ 570.0, 274.0, 48.0, 20.0 ],
					"outlettype" : [ "" ],
					"id" : "obj-72",
					"fontname" : "Arial",
					"numinlets" : 2,
					"numoutlets" : 1,
					"fontsize" : 12.0
				}

			}
, 			{
				"box" : 				{
					"maxclass" : "message",
					"text" : "start",
					"patching_rect" : [ 487.0, 305.0, 34.0, 18.0 ],
					"outlettype" : [ "" ],
					"id" : "obj-69",
					"fontname" : "Arial",
					"numinlets" : 2,
					"numoutlets" : 1,
					"fontsize" : 12.0
				}

			}
, 			{
				"box" : 				{
					"maxclass" : "message",
					"text" : "reset",
					"patching_rect" : [ 472.0, 143.0, 37.0, 18.0 ],
					"outlettype" : [ "" ],
					"id" : "obj-67",
					"fontname" : "Arial",
					"numinlets" : 2,
					"numoutlets" : 1,
					"fontsize" : 12.0
				}

			}
, 			{
				"box" : 				{
					"maxclass" : "message",
					"text" : "nsub $2 2 $1",
					"patching_rect" : [ 570.0, 305.0, 80.0, 18.0 ],
					"outlettype" : [ "" ],
					"id" : "obj-65",
					"fontname" : "Arial",
					"numinlets" : 2,
					"numoutlets" : 1,
					"fontsize" : 12.0
				}

			}
, 			{
				"box" : 				{
					"maxclass" : "message",
					"text" : "4",
					"patching_rect" : [ 748.0, 182.0, 32.5, 18.0 ],
					"outlettype" : [ "" ],
					"id" : "obj-61",
					"fontname" : "Arial",
					"numinlets" : 2,
					"numoutlets" : 1,
					"fontsize" : 12.0
				}

			}
, 			{
				"box" : 				{
					"maxclass" : "button",
					"patching_rect" : [ 748.0, 115.0, 60.0, 60.0 ],
					"outlettype" : [ "bang" ],
					"id" : "obj-62",
					"numinlets" : 1,
					"numoutlets" : 1
				}

			}
, 			{
				"box" : 				{
					"maxclass" : "message",
					"text" : "3",
					"patching_rect" : [ 684.0, 182.0, 32.5, 18.0 ],
					"outlettype" : [ "" ],
					"id" : "obj-59",
					"fontname" : "Arial",
					"numinlets" : 2,
					"numoutlets" : 1,
					"fontsize" : 12.0
				}

			}
, 			{
				"box" : 				{
					"maxclass" : "button",
					"patching_rect" : [ 684.0, 115.0, 60.0, 60.0 ],
					"outlettype" : [ "bang" ],
					"id" : "obj-60",
					"numinlets" : 1,
					"numoutlets" : 1
				}

			}
, 			{
				"box" : 				{
					"maxclass" : "message",
					"text" : "2",
					"patching_rect" : [ 620.0, 182.0, 32.5, 18.0 ],
					"outlettype" : [ "" ],
					"id" : "obj-57",
					"fontname" : "Arial",
					"numinlets" : 2,
					"numoutlets" : 1,
					"fontsize" : 12.0
				}

			}
, 			{
				"box" : 				{
					"maxclass" : "button",
					"patching_rect" : [ 620.0, 115.0, 60.0, 60.0 ],
					"outlettype" : [ "bang" ],
					"id" : "obj-58",
					"numinlets" : 1,
					"numoutlets" : 1
				}

			}
, 			{
				"box" : 				{
					"maxclass" : "message",
					"text" : "1",
					"patching_rect" : [ 556.0, 182.0, 32.5, 18.0 ],
					"outlettype" : [ "" ],
					"id" : "obj-50",
					"fontname" : "Arial",
					"numinlets" : 2,
					"numoutlets" : 1,
					"fontsize" : 12.0
				}

			}
, 			{
				"box" : 				{
					"maxclass" : "newobj",
					"text" : "prepend set",
					"patching_rect" : [ 588.0, 405.0, 74.0, 20.0 ],
					"outlettype" : [ "" ],
					"id" : "obj-48",
					"fontname" : "Arial",
					"numinlets" : 1,
					"numoutlets" : 1,
					"fontsize" : 12.0
				}

			}
, 			{
				"box" : 				{
					"maxclass" : "comment",
					"text" : "1",
					"patching_rect" : [ 597.0, 477.0, 70.0, 20.0 ],
					"id" : "obj-45",
					"fontname" : "Arial",
					"numinlets" : 1,
					"numoutlets" : 0,
					"fontsize" : 12.0
				}

			}
, 			{
				"box" : 				{
					"maxclass" : "comment",
					"text" : "Note Index:",
					"patching_rect" : [ 597.0, 453.0, 72.0, 20.0 ],
					"id" : "obj-43",
					"fontname" : "Arial",
					"numinlets" : 1,
					"numoutlets" : 0,
					"fontsize" : 12.0
				}

			}
, 			{
				"box" : 				{
					"maxclass" : "message",
					"text" : "next",
					"patching_rect" : [ 526.0, 305.0, 33.0, 18.0 ],
					"outlettype" : [ "" ],
					"id" : "obj-35",
					"fontname" : "Arial",
					"numinlets" : 2,
					"numoutlets" : 1,
					"fontsize" : 12.0
				}

			}
, 			{
				"box" : 				{
					"maxclass" : "newobj",
					"text" : "coll #0tb303",
					"patching_rect" : [ 570.0, 344.0, 75.0, 20.0 ],
					"outlettype" : [ "", "", "", "" ],
					"id" : "obj-33",
					"fontname" : "Arial",
					"numinlets" : 1,
					"numoutlets" : 4,
					"fontsize" : 12.0,
					"saved_object_attributes" : 					{
						"embed" : 0
					}

				}

			}
, 			{
				"box" : 				{
					"maxclass" : "newobj",
					"text" : "append 0 0 0 0 0",
					"patching_rect" : [ 260.0, 339.0, 101.0, 20.0 ],
					"outlettype" : [ "" ],
					"id" : "obj-23",
					"fontname" : "Arial",
					"numinlets" : 1,
					"numoutlets" : 1,
					"fontsize" : 12.0
				}

			}
, 			{
				"box" : 				{
					"maxclass" : "button",
					"patching_rect" : [ 556.0, 115.0, 60.0, 60.0 ],
					"outlettype" : [ "bang" ],
					"id" : "obj-13",
					"numinlets" : 1,
					"numoutlets" : 1
				}

			}
, 			{
				"box" : 				{
					"maxclass" : "newobj",
					"text" : "t s 0",
					"patching_rect" : [ 59.0, 155.0, 33.0, 20.0 ],
					"outlettype" : [ "", "int" ],
					"id" : "obj-25",
					"fontname" : "Arial",
					"numinlets" : 1,
					"numoutlets" : 2,
					"fontsize" : 12.0
				}

			}
, 			{
				"box" : 				{
					"maxclass" : "message",
					"text" : "clear",
					"patching_rect" : [ 59.0, 117.0, 37.0, 18.0 ],
					"outlettype" : [ "" ],
					"id" : "obj-24",
					"fontname" : "Arial",
					"numinlets" : 2,
					"numoutlets" : 1,
					"fontsize" : 12.0
				}

			}
, 			{
				"box" : 				{
					"maxclass" : "newobj",
					"text" : "+ 1",
					"patching_rect" : [ 181.0, 268.0, 32.5, 20.0 ],
					"outlettype" : [ "int" ],
					"id" : "obj-12",
					"fontname" : "Arial",
					"numinlets" : 2,
					"numoutlets" : 1,
					"fontsize" : 12.0
				}

			}
, 			{
				"box" : 				{
					"maxclass" : "newobj",
					"text" : "counter",
					"patching_rect" : [ 181.0, 241.0, 73.0, 20.0 ],
					"outlettype" : [ "int", "", "", "int" ],
					"id" : "obj-11",
					"fontname" : "Arial",
					"numinlets" : 5,
					"numoutlets" : 4,
					"fontsize" : 12.0
				}

			}
, 			{
				"box" : 				{
					"maxclass" : "newobj",
					"text" : "pack i i",
					"patching_rect" : [ 260.0, 299.0, 48.0, 20.0 ],
					"outlettype" : [ "" ],
					"id" : "obj-10",
					"fontname" : "Arial",
					"numinlets" : 2,
					"numoutlets" : 1,
					"fontsize" : 12.0
				}

			}
, 			{
				"box" : 				{
					"maxclass" : "newobj",
					"text" : "t b i",
					"patching_rect" : [ 275.0, 204.0, 32.5, 20.0 ],
					"outlettype" : [ "bang", "int" ],
					"id" : "obj-9",
					"fontname" : "Arial",
					"numinlets" : 1,
					"numoutlets" : 2,
					"fontsize" : 12.0
				}

			}
, 			{
				"box" : 				{
					"maxclass" : "newobj",
					"text" : "coll #0tb303",
					"patching_rect" : [ 260.0, 381.0, 75.0, 20.0 ],
					"outlettype" : [ "", "", "", "" ],
					"id" : "obj-5",
					"fontname" : "Arial",
					"numinlets" : 1,
					"numoutlets" : 4,
					"fontsize" : 12.0,
					"saved_object_attributes" : 					{
						"embed" : 0
					}

				}

			}
, 			{
				"box" : 				{
					"maxclass" : "kslider",
					"patching_rect" : [ 275.0, 140.0, 120.0, 53.0 ],
					"outlettype" : [ "int", "int" ],
					"id" : "obj-4",
					"numinlets" : 2,
					"presentation_rect" : [ 0.0, 0.0, 120.0, 53.0 ],
					"offset" : 48,
					"range" : 17,
					"numoutlets" : 2
				}

			}
 ],
		"lines" : [ 			{
				"patchline" : 				{
					"source" : [ "obj-123", 0 ],
					"destination" : [ "obj-97", 0 ],
					"hidden" : 0,
					"midpoints" : [  ]
				}

			}
, 			{
				"patchline" : 				{
					"source" : [ "obj-124", 0 ],
					"destination" : [ "obj-97", 0 ],
					"hidden" : 0,
					"midpoints" : [  ]
				}

			}
, 			{
				"patchline" : 				{
					"source" : [ "obj-118", 0 ],
					"destination" : [ "obj-97", 0 ],
					"hidden" : 0,
					"midpoints" : [  ]
				}

			}
, 			{
				"patchline" : 				{
					"source" : [ "obj-99", 0 ],
					"destination" : [ "obj-97", 0 ],
					"hidden" : 0,
					"midpoints" : [  ]
				}

			}
, 			{
				"patchline" : 				{
					"source" : [ "obj-97", 0 ],
					"destination" : [ "obj-103", 0 ],
					"hidden" : 0,
					"midpoints" : [  ]
				}

			}
, 			{
				"patchline" : 				{
					"source" : [ "obj-126", 0 ],
					"destination" : [ "obj-97", 0 ],
					"hidden" : 0,
					"midpoints" : [  ]
				}

			}
, 			{
				"patchline" : 				{
					"source" : [ "obj-23", 0 ],
					"destination" : [ "obj-5", 0 ],
					"hidden" : 0,
					"midpoints" : [  ]
				}

			}
, 			{
				"patchline" : 				{
					"source" : [ "obj-10", 0 ],
					"destination" : [ "obj-23", 0 ],
					"hidden" : 0,
					"midpoints" : [  ]
				}

			}
, 			{
				"patchline" : 				{
					"source" : [ "obj-120", 0 ],
					"destination" : [ "obj-124", 0 ],
					"hidden" : 0,
					"midpoints" : [  ]
				}

			}
, 			{
				"patchline" : 				{
					"source" : [ "obj-122", 0 ],
					"destination" : [ "obj-123", 0 ],
					"hidden" : 0,
					"midpoints" : [  ]
				}

			}
, 			{
				"patchline" : 				{
					"source" : [ "obj-121", 0 ],
					"destination" : [ "obj-122", 0 ],
					"hidden" : 0,
					"midpoints" : [  ]
				}

			}
, 			{
				"patchline" : 				{
					"source" : [ "obj-119", 0 ],
					"destination" : [ "obj-121", 1 ],
					"hidden" : 0,
					"midpoints" : [  ]
				}

			}
, 			{
				"patchline" : 				{
					"source" : [ "obj-119", 0 ],
					"destination" : [ "obj-121", 0 ],
					"hidden" : 0,
					"midpoints" : [  ]
				}

			}
, 			{
				"patchline" : 				{
					"source" : [ "obj-96", 5 ],
					"destination" : [ "obj-118", 4 ],
					"hidden" : 0,
					"midpoints" : [  ]
				}

			}
, 			{
				"patchline" : 				{
					"source" : [ "obj-96", 4 ],
					"destination" : [ "obj-118", 3 ],
					"hidden" : 0,
					"midpoints" : [  ]
				}

			}
, 			{
				"patchline" : 				{
					"source" : [ "obj-96", 3 ],
					"destination" : [ "obj-118", 2 ],
					"hidden" : 0,
					"midpoints" : [  ]
				}

			}
, 			{
				"patchline" : 				{
					"source" : [ "obj-96", 2 ],
					"destination" : [ "obj-118", 1 ],
					"hidden" : 0,
					"midpoints" : [  ]
				}

			}
, 			{
				"patchline" : 				{
					"source" : [ "obj-96", 0 ],
					"destination" : [ "obj-118", 0 ],
					"hidden" : 0,
					"midpoints" : [  ]
				}

			}
, 			{
				"patchline" : 				{
					"source" : [ "obj-96", 1 ],
					"destination" : [ "obj-102", 0 ],
					"hidden" : 0,
					"midpoints" : [  ]
				}

			}
, 			{
				"patchline" : 				{
					"source" : [ "obj-106", 0 ],
					"destination" : [ "obj-85", 1 ],
					"hidden" : 0,
					"midpoints" : [  ]
				}

			}
, 			{
				"patchline" : 				{
					"source" : [ "obj-90", 0 ],
					"destination" : [ "obj-85", 0 ],
					"hidden" : 0,
					"midpoints" : [  ]
				}

			}
, 			{
				"patchline" : 				{
					"source" : [ "obj-103", 0 ],
					"destination" : [ "obj-104", 1 ],
					"hidden" : 0,
					"midpoints" : [  ]
				}

			}
, 			{
				"patchline" : 				{
					"source" : [ "obj-103", 0 ],
					"destination" : [ "obj-104", 0 ],
					"hidden" : 0,
					"midpoints" : [  ]
				}

			}
, 			{
				"patchline" : 				{
					"source" : [ "obj-101", 0 ],
					"destination" : [ "obj-88", 0 ],
					"hidden" : 0,
					"midpoints" : [  ]
				}

			}
, 			{
				"patchline" : 				{
					"source" : [ "obj-84", 0 ],
					"destination" : [ "obj-96", 0 ],
					"hidden" : 0,
					"midpoints" : [  ]
				}

			}
, 			{
				"patchline" : 				{
					"source" : [ "obj-95", 0 ],
					"destination" : [ "obj-84", 0 ],
					"hidden" : 0,
					"midpoints" : [  ]
				}

			}
, 			{
				"patchline" : 				{
					"source" : [ "obj-87", 0 ],
					"destination" : [ "obj-95", 0 ],
					"hidden" : 0,
					"midpoints" : [  ]
				}

			}
, 			{
				"patchline" : 				{
					"source" : [ "obj-93", 0 ],
					"destination" : [ "obj-84", 0 ],
					"hidden" : 0,
					"midpoints" : [  ]
				}

			}
, 			{
				"patchline" : 				{
					"source" : [ "obj-93", 1 ],
					"destination" : [ "obj-86", 1 ],
					"hidden" : 0,
					"midpoints" : [  ]
				}

			}
, 			{
				"patchline" : 				{
					"source" : [ "obj-92", 0 ],
					"destination" : [ "obj-93", 0 ],
					"hidden" : 0,
					"midpoints" : [  ]
				}

			}
, 			{
				"patchline" : 				{
					"source" : [ "obj-88", 0 ],
					"destination" : [ "obj-86", 1 ],
					"hidden" : 0,
					"midpoints" : [ 923.5, 321.0, 1034.75, 321.0, 1034.75, 193.0, 920.0, 193.0 ]
				}

			}
, 			{
				"patchline" : 				{
					"source" : [ "obj-87", 1 ],
					"destination" : [ "obj-88", 0 ],
					"hidden" : 0,
					"midpoints" : [  ]
				}

			}
, 			{
				"patchline" : 				{
					"source" : [ "obj-86", 0 ],
					"destination" : [ "obj-87", 0 ],
					"hidden" : 0,
					"midpoints" : [  ]
				}

			}
, 			{
				"patchline" : 				{
					"source" : [ "obj-85", 0 ],
					"destination" : [ "obj-86", 0 ],
					"hidden" : 0,
					"midpoints" : [  ]
				}

			}
, 			{
				"patchline" : 				{
					"source" : [ "obj-48", 0 ],
					"destination" : [ "obj-45", 0 ],
					"hidden" : 0,
					"midpoints" : [  ]
				}

			}
, 			{
				"patchline" : 				{
					"source" : [ "obj-33", 1 ],
					"destination" : [ "obj-48", 0 ],
					"hidden" : 0,
					"midpoints" : [  ]
				}

			}
, 			{
				"patchline" : 				{
					"source" : [ "obj-74", 0 ],
					"destination" : [ "obj-35", 0 ],
					"hidden" : 0,
					"midpoints" : [ 481.5, 290.5, 535.5, 290.5 ]
				}

			}
, 			{
				"patchline" : 				{
					"source" : [ "obj-74", 1 ],
					"destination" : [ "obj-69", 0 ],
					"hidden" : 0,
					"midpoints" : [ 496.5, 290.5, 496.5, 290.5 ]
				}

			}
, 			{
				"patchline" : 				{
					"source" : [ "obj-67", 0 ],
					"destination" : [ "obj-74", 0 ],
					"hidden" : 0,
					"midpoints" : [  ]
				}

			}
, 			{
				"patchline" : 				{
					"source" : [ "obj-73", 0 ],
					"destination" : [ "obj-35", 0 ],
					"hidden" : 0,
					"midpoints" : [ 565.5, 276.0, 535.5, 276.0 ]
				}

			}
, 			{
				"patchline" : 				{
					"source" : [ "obj-33", 1 ],
					"destination" : [ "obj-72", 1 ],
					"hidden" : 0,
					"midpoints" : [ 598.166687, 373.0, 662.333313, 373.0, 662.333313, 264.0, 608.5, 264.0 ]
				}

			}
, 			{
				"patchline" : 				{
					"source" : [ "obj-73", 1 ],
					"destination" : [ "obj-72", 0 ],
					"hidden" : 0,
					"midpoints" : [ 579.0, 260.5, 579.5, 260.5 ]
				}

			}
, 			{
				"patchline" : 				{
					"source" : [ "obj-61", 0 ],
					"destination" : [ "obj-73", 0 ],
					"hidden" : 0,
					"midpoints" : [ 757.5, 213.5, 565.5, 213.5 ]
				}

			}
, 			{
				"patchline" : 				{
					"source" : [ "obj-59", 0 ],
					"destination" : [ "obj-73", 0 ],
					"hidden" : 0,
					"midpoints" : [ 693.5, 213.5, 565.5, 213.5 ]
				}

			}
, 			{
				"patchline" : 				{
					"source" : [ "obj-57", 0 ],
					"destination" : [ "obj-73", 0 ],
					"hidden" : 0,
					"midpoints" : [ 629.5, 213.5, 565.5, 213.5 ]
				}

			}
, 			{
				"patchline" : 				{
					"source" : [ "obj-50", 0 ],
					"destination" : [ "obj-73", 0 ],
					"hidden" : 0,
					"midpoints" : [  ]
				}

			}
, 			{
				"patchline" : 				{
					"source" : [ "obj-72", 0 ],
					"destination" : [ "obj-65", 0 ],
					"hidden" : 0,
					"midpoints" : [  ]
				}

			}
, 			{
				"patchline" : 				{
					"source" : [ "obj-65", 0 ],
					"destination" : [ "obj-33", 0 ],
					"hidden" : 0,
					"midpoints" : [  ]
				}

			}
, 			{
				"patchline" : 				{
					"source" : [ "obj-69", 0 ],
					"destination" : [ "obj-33", 0 ],
					"hidden" : 0,
					"midpoints" : [ 496.5, 333.0, 579.5, 333.0 ]
				}

			}
, 			{
				"patchline" : 				{
					"source" : [ "obj-62", 0 ],
					"destination" : [ "obj-61", 0 ],
					"hidden" : 0,
					"midpoints" : [  ]
				}

			}
, 			{
				"patchline" : 				{
					"source" : [ "obj-60", 0 ],
					"destination" : [ "obj-59", 0 ],
					"hidden" : 0,
					"midpoints" : [  ]
				}

			}
, 			{
				"patchline" : 				{
					"source" : [ "obj-58", 0 ],
					"destination" : [ "obj-57", 0 ],
					"hidden" : 0,
					"midpoints" : [  ]
				}

			}
, 			{
				"patchline" : 				{
					"source" : [ "obj-13", 0 ],
					"destination" : [ "obj-50", 0 ],
					"hidden" : 0,
					"midpoints" : [  ]
				}

			}
, 			{
				"patchline" : 				{
					"source" : [ "obj-35", 0 ],
					"destination" : [ "obj-33", 0 ],
					"hidden" : 0,
					"midpoints" : [ 535.5, 333.0, 579.5, 333.0 ]
				}

			}
, 			{
				"patchline" : 				{
					"source" : [ "obj-25", 0 ],
					"destination" : [ "obj-5", 0 ],
					"hidden" : 0,
					"midpoints" : [ 68.5, 373.5, 269.5, 373.5 ]
				}

			}
, 			{
				"patchline" : 				{
					"source" : [ "obj-4", 0 ],
					"destination" : [ "obj-9", 0 ],
					"hidden" : 0,
					"midpoints" : [  ]
				}

			}
, 			{
				"patchline" : 				{
					"source" : [ "obj-9", 1 ],
					"destination" : [ "obj-10", 1 ],
					"hidden" : 0,
					"midpoints" : [  ]
				}

			}
, 			{
				"patchline" : 				{
					"source" : [ "obj-9", 0 ],
					"destination" : [ "obj-11", 0 ],
					"hidden" : 0,
					"midpoints" : [ 284.5, 232.0, 190.5, 232.0 ]
				}

			}
, 			{
				"patchline" : 				{
					"source" : [ "obj-11", 0 ],
					"destination" : [ "obj-12", 0 ],
					"hidden" : 0,
					"midpoints" : [  ]
				}

			}
, 			{
				"patchline" : 				{
					"source" : [ "obj-12", 0 ],
					"destination" : [ "obj-10", 0 ],
					"hidden" : 0,
					"midpoints" : [ 190.5, 293.0, 269.5, 293.0 ]
				}

			}
, 			{
				"patchline" : 				{
					"source" : [ "obj-24", 0 ],
					"destination" : [ "obj-25", 0 ],
					"hidden" : 0,
					"midpoints" : [  ]
				}

			}
, 			{
				"patchline" : 				{
					"source" : [ "obj-25", 1 ],
					"destination" : [ "obj-11", 2 ],
					"hidden" : 0,
					"midpoints" : [ 82.5, 207.5, 217.5, 207.5 ]
				}

			}
 ]
	}

}
